<svg xmlns="http://www.w3.org/2000/svg" width="144.08" height="39.278" viewBox="0 0 144.08 39.278">
  <g id="logo-svg" transform="translate(-7.04 -8.14)">
    <path id="Path_593" data-name="Path 593" d="M127.383,28.529a4.249,4.249,0,0,0-2.354-3.914,4.214,4.214,0,0,0,2.222-3.888v-.476c0-4.205-3.385-5.528-8.357-5.528a40.9,40.9,0,0,0-4.734.291c-1.031.185-1.4.529-1.4,1.719v16.08c0,1.19.4,1.534,1.455,1.719a30.077,30.077,0,0,0,4.84.318c4.576,0,8.331-1.3,8.331-5.925v-.4Zm-4.391.29c0,1.481-.873,2.327-3.6,2.327h-.45c-.4,0-.846-.026-1.27-.026h-.45V26.175h2.962c2.116,0,2.8,1.084,2.8,2.354v.291Zm-.106-7.881c0,1.137-.608,2.089-2.7,2.089h-2.962V18.453c.185,0,.582-.027.979-.027h1.031c2.724,0,3.65.661,3.65,2.116v.4Zm22.147-5.475a.509.509,0,0,0-.529-.5H141.04a.509.509,0,0,0-.529.5V22.5h-6.532V15.464a.509.509,0,0,0-.529-.5h-3.465a.509.509,0,0,0-.529.5V34.083a.531.531,0,0,0,.529.529h3.465a.531.531,0,0,0,.529-.529V26.44h6.533v7.644a.53.53,0,0,0,.529.529h3.465a.53.53,0,0,0,.529-.529V15.464Zm18.047,18.725a.529.529,0,0,1-.027-.132l-3.941-16.4c-.635-2.539-2.539-2.936-4.364-2.936-1.851,0-3.756.4-4.39,2.936l-3.941,16.4a.529.529,0,0,1-.027.132c0,.291.159.423.45.423h3.7c.291,0,.45-.185.529-.476l.952-4.338h5.422l.952,4.338c.08.291.238.476.529.476h3.7c.291,0,.45-.132.45-.423Zm-6.374-8.014h-3.941l1.613-7.3c.053-.265.185-.4.37-.4.238,0,.265.106.344.4l1.614,7.3Zm22.913,8.12a.684.684,0,0,0-.08-.291l-3.993-7.458a5.307,5.307,0,0,0,3.412-5.29v-.344c0-4.681-3.438-6.189-7.961-6.189a37.845,37.845,0,0,0-5.369.344c-.82.133-1.19.344-1.19,1.27V34.083a.531.531,0,0,0,.529.529h3.438a.531.531,0,0,0,.529-.529V27.365c.5,0,1.322.053,1.878.053l.291-.026,3.544,6.691c.132.291.238.529.529.529h4.046q.4,0,.4-.318Zm-5.157-13.039c0,1.8-.9,2.513-3.65,2.513h-.37c-.5,0-1.3-.053-1.507-.053V18.638c.317,0,1.666-.08,2.062-.08,2.222,0,3.465.74,3.465,2.354v.344Zm22.306,12.933a.529.529,0,0,1-.027-.132l-3.941-16.4c-.635-2.539-2.539-2.936-4.364-2.936-1.851,0-3.756.4-4.39,2.936l-3.941,16.4a.529.529,0,0,1-.027.132c0,.291.159.423.45.423h3.7c.291,0,.45-.185.529-.476l.952-4.338h5.422l.952,4.338c.08.291.238.476.529.476h3.7c.291,0,.45-.132.45-.423Zm-6.374-8.014h-3.941l1.613-7.3c.053-.265.185-.4.37-.4.238,0,.265.106.344.4l1.613,7.3ZM211.14,15.464a.532.532,0,0,0-.555-.5H197.466a.509.509,0,0,0-.529.5v2.724a.509.509,0,0,0,.529.5h4.311V34.083a.531.531,0,0,0,.529.529h3.465a.531.531,0,0,0,.529-.529V18.69h4.285a.532.532,0,0,0,.555-.5V15.464Z" transform="translate(-60.02 -3.737)" fill="#15b1b7" fill-rule="evenodd"/>
    <path id="Path_594" data-name="Path 594" d="M126.464,62.9c0-.179-.13-.211-.26-.211h-2.211c-.147,0-.244.1-.26.309l-.927,8.715c-.016.146-.049.211-.1.211s-.081-.065-.114-.211l-1.171-4.472a.937.937,0,0,0-1.008-.781H118.8a.937.937,0,0,0-1.008.781l-1.171,4.472c-.032.146-.065.211-.114.211s-.081-.065-.1-.211L115.488,63c-.016-.211-.114-.309-.26-.309h-2.211c-.13,0-.26.032-.26.211v.032l1.512,10.65c.13.96.634,1.235,1.5,1.235h.927a1.374,1.374,0,0,0,1.5-1.106l1.284-4.862c.049-.13.049-.13.13-.13s.1,0,.146.13l1.285,4.862a1.373,1.373,0,0,0,1.5,1.106h.927c.862,0,1.366-.276,1.5-1.235l1.512-10.65V62.9ZM141,67.763c0-3.773-2.13-5.22-4.813-5.22s-4.813,1.447-4.813,5.22V69.7c0,3.772,2.13,5.219,4.813,5.219S141,73.469,141,69.7V67.763Zm-2.8,1.935c0,1.968-.651,2.781-2.016,2.781s-2-.813-2-2.781V67.763c0-1.968.634-2.781,2-2.781s2.016.813,2.016,2.781V69.7Zm17.906,4.878a.424.424,0,0,0-.048-.179l-2.455-4.585a3.263,3.263,0,0,0,2.1-3.252v-.211c0-2.878-2.114-3.8-4.894-3.8a23.249,23.249,0,0,0-3.3.211c-.5.081-.731.211-.731.781v10.91a.326.326,0,0,0,.325.325h2.114a.326.326,0,0,0,.325-.325v-4.13c.309,0,.813.032,1.155.032l.179-.016,2.179,4.114c.081.179.146.325.325.325h2.488c.162,0,.243-.065.243-.2Zm-3.171-8.016c0,1.106-.552,1.544-2.243,1.544h-.227c-.31,0-.8-.032-.927-.032V64.949c.195,0,1.024-.049,1.268-.049,1.366,0,2.13.456,2.13,1.447v.211Zm18.134-3.691c0-.114-.081-.179-.261-.179h-2.488a.408.408,0,0,0-.358.195l-3.577,5.284V63a.312.312,0,0,0-.325-.309h-2.13a.312.312,0,0,0-.325.309V74.445a.326.326,0,0,0,.325.326h2.13a.326.326,0,0,0,.325-.326V69.177l3.3,5.366a.382.382,0,0,0,.357.227h2.8c.147,0,.228-.049.228-.163a.245.245,0,0,0-.065-.179l-3.886-5.837,3.87-5.5a.488.488,0,0,0,.081-.228ZM183.8,72.852a.326.326,0,0,0-.325-.325h-3.3c-.765,0-1.04-.261-1.04-1.106V69.7h4.211a.326.326,0,0,0,.325-.325V67.828a.326.326,0,0,0-.325-.325h-4.211v-1.48c0-.846.276-1.106,1.04-1.106h3.3a.326.326,0,0,0,.325-.325V63.079c0-.179-.114-.293-.325-.325a18.744,18.744,0,0,0-3.138-.211c-2.1,0-3.968.536-3.968,3.48v5.4c0,2.943,1.87,3.5,3.951,3.5a19.249,19.249,0,0,0,3.155-.211.329.329,0,0,0,.325-.341V72.852Zm15.159,1.723a.425.425,0,0,0-.049-.179l-2.455-4.585a3.263,3.263,0,0,0,2.1-3.252v-.211c0-2.878-2.114-3.8-4.894-3.8a23.251,23.251,0,0,0-3.3.211c-.5.081-.731.211-.731.781v10.91a.327.327,0,0,0,.325.325h2.114a.326.326,0,0,0,.325-.325v-4.13c.309,0,.813.032,1.155.032l.179-.016,2.179,4.114c.081.179.147.325.326.325h2.488c.162,0,.243-.065.243-.2Zm-3.171-8.016c0,1.106-.553,1.544-2.244,1.544h-.227c-.309,0-.8-.032-.927-.032V64.949c.2,0,1.024-.049,1.269-.049,1.366,0,2.13.456,2.13,1.447v.211Z" transform="translate(-60.019 -30.887)" fill="#067a97" fill-rule="evenodd"/>
    <ellipse id="Ellipse_21" data-name="Ellipse 21" cx="19.556" cy="19.639" rx="19.556" ry="19.639" transform="translate(7.04 8.14)" fill="#15b1b7"/>
    <path id="Path_595" data-name="Path 595" d="M75.31,46.407,75.3,47.753s-.042.374-1.282.338l-2.879,9.024H68.778l-1.633-5.271h2.336L70,53.663,71.28,48.1s-1.152.031-1.24-.392a8.2,8.2,0,0,1,0-1.505H75.31Z" transform="translate(-34.124 -21.608)" fill="#fff" fill-rule="evenodd"/>
    <path id="Path_596" data-name="Path 596" d="M45.433,46.407l.015,1.347s.041.374,1.282.338l2.879,9.024h2.357L53.6,51.843H51.263l-.517,1.819L49.464,48.1s1.152.031,1.241-.392a8.241,8.241,0,0,0,0-1.505H45.433Z" transform="translate(-21.797 -21.608)" fill="#fff" fill-rule="evenodd"/>
    <path id="Path_597" data-name="Path 597" d="M59.873,49.11h1.94l.288-1.751h.222l.469,1.841h2.12l-1.323-4.416a.644.644,0,0,0-.74-.49H61.575a.617.617,0,0,0-.559.493l-1.281,4.1-.076.222Z" transform="translate(-29.873 -20.524)" fill="#fce45c" fill-rule="evenodd"/>
    <path id="Path_598" data-name="Path 598" d="M22.91,35.433v6.272c0-1.637,2.74-2.148,4.486-1.569.113.037,3.948,1.292,2.522,7.1,0,0-.682,3.184-3.245,3.7a13.562,13.562,0,0,1-6.326-.579V37.769H19.256s-.749.005-.729-.915,0-1.447,0-1.447l4.383.026Zm.036,7.911v5.561a12.515,12.515,0,0,0,3.122-.186c2.189-.948,1.7-9.1-3.1-5.52Z" transform="translate(-6.522 -15.48)" fill="#fff" fill-rule="evenodd"/>
  </g>
</svg>
