<svg xmlns="http://www.w3.org/2000/svg" width="8.139" height="11.395" viewBox="0 0 8.139 11.395">
  <path id="rupee" d="M7.834,3.878a.305.305,0,0,0,.305-.305V2.555a.305.305,0,0,0-.305-.305H.305A.305.305,0,0,0,0,2.555V3.693A.305.305,0,0,0,.305,4H2.474a1.835,1.835,0,0,1,1.551.693H.305A.305.305,0,0,0,0,5V6.014a.305.305,0,0,0,.305.305H4.343a1.758,1.758,0,0,1-1.9,1.491H.305A.305.305,0,0,0,0,8.116V9.464a.305.305,0,0,0,.1.224l4.2,3.875a.305.305,0,0,0,.207.081H6.6a.305.305,0,0,0,.207-.529L2.973,9.573A3.484,3.484,0,0,0,6.491,6.319H7.834a.305.305,0,0,0,.305-.305V5a.305.305,0,0,0-.305-.305H6.341a3.484,3.484,0,0,0-.362-.814Z" transform="translate(0 -2.25)" fill="#fff"/>
</svg>
